<svg width="28" height="28" viewBox="0 0 28 28" fill="none" xmlns="http://www.w3.org/2000/svg">
<circle cx="14" cy="14" r="12" fill="#4879BE"/>
<path d="M10.093 14C10.093 14.7193 9.50995 15.3023 8.7907 15.3023C8.07145 15.3023 7.48837 14.7193 7.48837 14C7.48837 13.2807 8.07145 12.6977 8.7907 12.6977C9.50995 12.6977 10.093 13.2807 10.093 14Z" fill="white"/>
<path d="M15.3023 14C15.3023 14.7193 14.7193 15.3023 14 15.3023C13.2807 15.3023 12.6977 14.7193 12.6977 14C12.6977 13.2807 13.2807 12.6977 14 12.6977C14.7193 12.6977 15.3023 13.2807 15.3023 14Z" fill="white"/>
<path d="M19.2093 15.3023C19.9286 15.3023 20.5116 14.7193 20.5116 14C20.5116 13.2807 19.9286 12.6977 19.2093 12.6977C18.49 12.6977 17.907 13.2807 17.907 14C17.907 14.7193 18.49 15.3023 19.2093 15.3023Z" fill="white"/>
<path fill-rule="evenodd" clip-rule="evenodd" d="M14 0C6.26802 0 0 6.26802 0 14C0 21.732 6.26802 28 14 28C21.732 28 28 21.732 28 14C28 6.26802 21.732 0 14 0ZM1.95349 14C1.95349 7.3469 7.3469 1.95349 14 1.95349C20.6531 1.95349 26.0465 7.3469 26.0465 14C26.0465 20.6531 20.6531 26.0465 14 26.0465C7.3469 26.0465 1.95349 20.6531 1.95349 14Z" fill="#303030"/>
</svg>
