<svg width="27" height="27" viewBox="0 0 27 27" fill="none" xmlns="http://www.w3.org/2000/svg">
<path opacity="0.1" d="M25.3333 13.3333C25.3333 19.9608 19.9608 25.3333 13.3333 25.3333C6.70592 25.3333 1.33333 19.9608 1.33333 13.3333C1.33333 6.70592 6.70592 1.33333 13.3333 1.33333C19.9608 1.33333 25.3333 6.70592 25.3333 13.3333Z" fill="#323232"/>
<path d="M25.3333 13.3333C25.3333 19.9608 19.9608 25.3333 13.3333 25.3333C6.70592 25.3333 1.33333 19.9608 1.33333 13.3333C1.33333 6.70592 6.70592 1.33333 13.3333 1.33333C19.9608 1.33333 25.3333 6.70592 25.3333 13.3333Z" stroke="#323232" stroke-width="2.66667"/>
<path d="M9.33333 13.3333L11.5771 15.5771C11.8107 15.8107 12.1893 15.8107 12.4229 15.5771L17.3333 10.6667" stroke="#323232" stroke-width="2.66667" stroke-linecap="round" stroke-linejoin="round"/>
</svg>
