<svg width="28" height="28" viewBox="0 0 28 28" fill="none" xmlns="http://www.w3.org/2000/svg">
<path d="M22.72 0H5.28C3.87966 0 2.53667 0.556284 1.54648 1.54648C0.556284 2.53667 0 3.87966 0 5.28V22.72C0 24.1203 0.556284 25.4633 1.54648 26.4535C2.53667 27.4437 3.87966 28 5.28 28H22.72C24.1203 28 25.4633 27.4437 26.4535 26.4535C27.4437 25.4633 28 24.1203 28 22.72V5.28C28 3.87966 27.4437 2.53667 26.4535 1.54648C25.4633 0.556284 24.1203 0 22.72 0ZM25.2 22.72C25.1948 23.3761 24.9318 24.0039 24.4678 24.4678C24.0039 24.9318 23.3761 25.1948 22.72 25.2H5.28C4.62388 25.1948 3.99612 24.9318 3.53215 24.4678C3.06819 24.0039 2.80523 23.3761 2.8 22.72V5.28C2.80523 4.62388 3.06819 3.99612 3.53215 3.53215C3.99612 3.06819 4.62388 2.80523 5.28 2.8H22.72C23.3761 2.80523 24.0039 3.06819 24.4678 3.53215C24.9318 3.99612 25.1948 4.62388 25.2 5.28V22.72ZM15.4 6H12.6V12.62H6V15.42H12.6V22H15.4V15.42H22V12.62H15.4V6Z" fill="#303030"/>
</svg>
