<svg width="20" height="29" viewBox="0 0 20 29" fill="none" xmlns="http://www.w3.org/2000/svg">
<path d="M16.9377 10.1657H16.4817V6.84025C16.4818 3.10654 13.4439 0.0689316 9.7098 0.0689316C5.97582 0.0689316 2.93793 3.10654 2.93793 6.84025V10.1657H2.4816C1.15132 10.1657 0.0689316 11.2481 0.0689316 12.5784V25.6563C0.0689316 26.9865 1.15132 28.0689 2.4816 28.0689H16.9377C18.268 28.0689 19.3504 26.9865 19.3504 25.6563V12.5784C19.3504 11.2481 18.2681 10.1657 16.9377 10.1657ZM5.00593 6.84025C5.00593 4.24684 7.11612 2.13693 9.7098 2.13693C12.3035 2.13693 14.4137 4.24684 14.4137 6.84025V10.1657H5.00593V6.84025ZM17.2824 25.6564C17.2824 25.8432 17.1245 26.0011 16.9377 26.0011H2.4816C2.29479 26.0011 2.13693 25.8432 2.13693 25.6564V12.5784C2.13693 12.3916 2.29479 12.2337 2.4816 12.2337H3.97193H15.4477H16.9377C17.1245 12.2337 17.2824 12.3916 17.2824 12.5784V25.6564Z" fill="#303030" stroke="#303030" stroke-width="0.137867"/>
<path d="M9.70953 16.104C9.13849 16.104 8.67553 16.5669 8.67553 17.138V21.0969C8.67553 21.6681 9.13849 22.1309 9.70953 22.1309C10.2806 22.1309 10.7435 21.6681 10.7435 21.0969V17.138C10.7435 16.5669 10.2806 16.104 9.70953 16.104Z" fill="#303030" stroke="#303030" stroke-width="0.137867"/>
</svg>
